<?xml version="1.0" standalone="no"?><!DOCTYPE svg PUBLIC "-//W3C//DTD SVG 1.1//EN" "http://www.w3.org/Graphics/SVG/1.1/DTD/svg11.dtd"><svg t="1720867299123" class="icon" viewBox="0 0 1172 1024" version="1.1" xmlns="http://www.w3.org/2000/svg" p-id="8885" xmlns:xlink="http://www.w3.org/1999/xlink" width="228.90625" height="200"><path d="M93.599025 641.404411H16.342237a16.342237 16.342237 0 0 1 0-32.627729h77.256788a16.342237 16.342237 0 1 1 0 32.627729z" fill="#50FBFF" p-id="8886"></path><path d="M54.970631 680.032805a16.328051 16.328051 0 0 1-16.342237-16.342236v-77.256789a16.342237 16.342237 0 0 1 32.627729 0v77.256789a16.328051 16.328051 0 0 1-16.285492 16.342236z" fill="#50FBFF" p-id="8887"></path><path d="M1068.728361 760.566552m-29.109609 0a29.109609 29.109609 0 1 0 58.219218 0 29.109609 29.109609 0 1 0-58.219218 0Z" fill="#FE7E00" p-id="8888"></path><path d="M991.556688 870.436884m-17.306882 0a17.306882 17.306882 0 1 0 34.613765 0 17.306882 17.306882 0 1 0-34.613765 0Z" fill="#FE7E00" p-id="8889"></path><path d="M1108.704422 568.899922m-63.609886 0a63.609886 63.609886 0 1 0 127.219772 0 63.609886 63.609886 0 1 0-127.219772 0Z" fill="#FEDF1D" p-id="8890"></path><path d="M275.746869 174.529979L121.034689 246.353541s153.946138 615.827109 785.094093 746.607558l55.608999-150.130112a80.860024 80.860024 0 0 0-28.556356-93.627396l-142.49806-102.649673s-30.556578 50.913443-60.091766 89.626953c-18.682921 24.484983-40.898149 20.002217-76.675163 5.333925 0 0-74.121689-20.328494-170.160701-115.417046-89.612767-88.733237-106.238723-154.839854-106.238723-154.839854-16.441538-16.072703-48.232295-80.860024-27.875429-91.584617l115.558905-53.310872-89.71207-125.517455a80.860024 80.860024 0 0 0-99.741549-26.314973z" fill="#FEDB03" p-id="8891"></path><path d="M330.972847 303.012302a36.273523 36.273523 0 0 0-8.511581 58.0348s2.383243 9.235066 9.74576 25.293583a35.819572 35.819572 0 0 1 11.831099-10.17134l112.551479-59.240607-41.564889-58.162474z" fill="#FF8304" p-id="8892"></path><path d="M950.37482 751.53009c-0.680927 2.510917-1.177435 5.036019-2.099524 7.518563l-59.58107 160.797961C346.988806 807.493738 133.518342 361.713842 70.078688 189.013853l-9.178322 4.255791s164.897706 659.53408 840.887509 799.691455l59.581071-160.79796a86.534412 86.534412 0 0 0-10.994126-80.633049z" fill="#FF8304" p-id="8893"></path><path d="M306.133215 698.77247a32.627729 32.627729 0 0 1-24.272193-10.795522l-6.823451-7.632052c-11.987144-13.490857-11.348775-34.91167 2.099523-46.884628s33.464701-11.490635 45.466031 1.97185l1.418597 1.532085 6.412058 7.220658a32.627729 32.627729 0 0 1-24.243821 54.587609z" fill="#27233A" p-id="8894"></path><path d="M880.225202 1023.985814a31.350992 31.350992 0 0 1-6.468802-0.638369c-202.547268-40.784661-379.46049-130.964868-525.859692-268.015515a32.712845 32.712845 0 0 1 44.699989-47.778345c130.85138 122.538402 287.890059 205.185858 467.044664 245.927962l48.047878-126.127452a48.232295 48.232295 0 0 0-18.001995-56.573645l-120.8219-84.505819c-12.341793 18.682921-29.27984 43.352322-46.132772 64.801508-30.556578 38.926299-80.306772 50.317633-129.886734 29.634489-5.575086-2.837194-73.76704-39.394436-176.090435-137.901806-99.032251-95.358085-119.034467-169.3521-119.843068-172.487199l-1.191621-4.68137c-5.447412-21.278954-16.796188-65.56755 26.187299-87.569988l75.469356-38.585836-97.230633-132.355093c-14.512246-19.690125-41.593262-26.584506-64.33337-16.242935l-135.263216 60.999668c16.75363 50.57298 61.48199 167.947689 150.442203 293.110495 8.426466 11.845284 17.250139 23.78987 26.471018 35.720271a32.690147 32.690147 0 0 1-51.736229 39.976061 1161.043555 1161.043555 0 0 1-28.017289-37.83398C72.53286 406.811038 30.967971 248.665854 29.251468 242.02682a32.627729 32.627729 0 0 1 18.214785-37.919095l161.450515-72.844952c50.686468-23.023828 111.24637-7.348332 143.8741 37.096309l119.999113 163.26632a32.712845 32.712845 0 0 1-11.433891 48.459271l-105.728028 54.119472c0.638369 4.340907 2.255569 10.596919 3.418818 15.164801l1.219994 4.809044s17.604788 60.446415 101.826886 141.448298c94.904134 91.357642 158.060069 125.673501 158.698438 125.999779 20.044774 8.242048 37.97584 4.979275 50.516236-10.951568 29.27984-37.309099 60.290369-87.399756 60.60246-87.953009a32.627729 32.627729 0 0 1 46.558351-9.603902l148.711515 104.096642c42.955115 30.074255 60.07758 84.945584 41.607448 133.348111L910.753408 1002.948022a32.627729 32.627729 0 0 1-30.528206 21.037792z" fill="#27233A" p-id="8895"></path><path d="M1020.751413 404.158262a32.627729 32.627729 0 0 1-32.627729-32.627729c0-168.813033-137.305996-306.104843-306.090657-306.104843a32.684473 32.684473 0 1 1 0-65.368946C886.864236 0.056744 1053.506816 166.685138 1053.506816 371.530533a32.627729 32.627729 0 0 1-32.755403 32.627729z" fill="#FEDB03" p-id="8896"></path><path d="M874.125236 404.158262a32.627729 32.627729 0 0 1-32.62773-32.627729 159.634711 159.634711 0 0 0-159.450293-159.450294 32.691566 32.691566 0 0 1 0-65.383132c123.971185 0 224.833426 100.848055 224.833425 224.833426a32.627729 32.627729 0 0 1-32.755402 32.627729z" fill="#FC00FC" p-id="8897"></path></svg>