<?xml version="1.0" standalone="no"?><!DOCTYPE svg PUBLIC "-//W3C//DTD SVG 1.1//EN" "http://www.w3.org/Graphics/SVG/1.1/DTD/svg11.dtd"><svg t="1720867340578" class="icon" viewBox="0 0 1024 1024" version="1.1" xmlns="http://www.w3.org/2000/svg" p-id="14558" xmlns:xlink="http://www.w3.org/1999/xlink" width="200" height="200"><path d="M509.1 959.4c-106.4-2-204.1-35.5-286.8-106.6-104.1-89.5-157.7-204-158.1-341.3C63.8 388.9 108 283 194.5 196.3c86.7-87.1 192.9-131.1 316-131.6 110.9-0.4 209.4 36.1 292.9 109C905.3 262.7 958 376.5 958 511.3c0.3 246.3-196.5 446.5-448.9 448.1z" fill="#42CA34" p-id="14559"></path><path d="M606 727.2c0.4-0.2 0.8-0.5 1.2-0.5 11.4 0.6 22.7 1.5 34.2 0 0.4 0 0.8 0.3 1.2 0.5-12.3 2.7-24.4 2.4-36.6 0z m119.4 10.1c4.8 1 8.4 4.5 12.7 6.6 1.1 0.5 2.1 2.2 3.4 1 1.1-1.1 1-3 0.2-4.2-1.3-2-1.6-4.1-1.3-6.3 3 4.2 2.8 9.3 4.8 15.1-7.6-4.7-14.2-7.6-19.8-12.2z m-257.2-95.8c3.7 2.3 4.4 6.7 6.9 9.9 4.7 6 9 12.3 13.5 18.5-4.4-2-6.2-6.4-8.9-9.9-4.5-5.7-9.1-11.5-11.5-18.5z m327.3-104c-3.5-2.3-3.3-6.6-4.9-9.8-2.5-5.2-5.8-10-7.4-15.7 5.1 5.7 7.7 12.9 10.5 19.8 0.7 1.8 2.4 3.4 1.8 5.7z m-111.6 181c1.5-3.2 4.9-2.3 6.4-1.5 6.6 3.8 14 6.5 19.6 11.9-4.6-1.5-8.5-4.3-12.7-6.8-4.2-2.6-8.5-4.1-13.3-3.6z m99.5-78.7c3.4-8 8.4-15.4 11.2-23.7 0.1-0.3 0.7-0.4 1.1-0.6-2.6 8.9-6.2 17.3-12.3 24.3z m-228.2 75.1c8.1 2.9 16.8 4 24.6 7.9-8.7-1.3-17-3.4-24.6-7.9z m246.6-126.4c-0.9-6.8-1-13.6 0-20.4 1.9 6.8 1.1 13.6 0 20.4zM665.1 722.8c0.3-0.3 0.5-0.9 0.8-1 5.4-1.1 10.7-3.8 16.5-3.2-5.4 2.9-11.4 3.5-17.3 4.2z m-148.8-28.4c5.4 2.8 10.8 5.7 15.3 10-5.7-2.6-11.1-5.4-15.3-10z m231.1-12c3.7-5.1 8.5-9.2 13.5-13.2-3.6 5.4-8.4 9.5-13.5 13.2z m-257-10.4c4.9 3.4 8.8 7.7 12.6 12.3-5.2-3.3-9.6-7.1-12.6-12.3z m220.7 57.2c5 2 9.9 4.3 14.1 7.9-5.4-1.4-10-4.2-14.1-7.9z m23.7-36.7c3.5-3.9 7.5-7.2 12.2-9.8-3.2 4.2-7.3 7.4-12.2 9.8z m64.5-140.6c-0.5-0.3-1.4-0.6-1.4-0.8 0.4-4-2.3-7.4-2.2-11.5 2.2 3.7 3.8 7.8 3.6 12.3z m-63 166.7c-2.5-4.2-4.4-8.6-4.1-13.7 2.8 4.1 3.3 9 4.1 13.7z m-195.7-10c4.3 1.6 9 2.3 12.5 5.9-4.6-1.3-9-2.6-12.5-5.9z m255.1-94.3c0.6-3.9 1.1-7.9 3.5-11.4-0.1 4.1-1.1 8-3.5 11.4z m6-49.9c-3.4-3.2-1.9-7.3-2.1-11.1 2.3 3.4 2.3 7.2 2.1 11.1z m-28.4 90.2c1.9-4 4.4-7.5 7.7-10.5-1.5 4.1-4.1 7.7-7.7 10.5z m-8.8 10.9c1.6-4.2 4.9-7 8.2-9.7-1.6 4.3-5.1 6.8-8.2 9.7z m-171.7 59.6c3.4-0.4 6.8-1 9.5 1.9-3.3 0-6.8 0.8-9.5-1.9z m206.7-123.7c0.5-3.4-1.6-7.3 2-10 0.7 3.6 0 6.9-2 10zM645.3 727c2-3.1 4.9-2.2 7.7-1.8-2.1 2.6-5 1.8-7.7 1.8z m10.8-2.2c1.7-3.1 4.7-1.3 7-1.8-1.9 2-4.3 2.5-7 1.8z m-74.3-1.8c2.3 0.5 5.3-1.2 7 1.8-2.6 0.5-5 0.3-7-1.8z m-74.4-35c2.8 0 4.3 1.8 5.3 4.2-2.1-0.7-4.1-2.1-5.3-4.2z m232.8 44.9c-3-0.9-1.1-3.5-1.7-5.2 1.3 1.4 2.6 2.9 1.7 5.2z m-9.8-35.9c0.2-2.7 1.7-4.1 4.3-4.4-0.7 2.1-3 2.8-4.3 4.4z m7.9 28.7c-2.8-0.9-0.9-3.3-1.6-4.9 1.5 1.2 2.1 2.9 1.6 4.9z m-6.3-22.4c-2.7-0.7-1.2-2.9-1.6-4.4 1.5 1.1 2.5 2.4 1.6 4.4z m51.1-191.6c-1.4-0.2-1.5-1.3-1.6-2.4 1.1 0.4 1.7 1.1 1.6 2.4z m-1.7 131.7c0.2-0.8 0.2-1.8 1.4-1.9 0.1 1-0.3 1.8-1.4 1.9zM537 706.8c1.2 0 2.4-0.1 2.6 1.6-1.3 0.2-2.2-0.3-2.6-1.6z m-32-20.7c1.1 0.1 2.2 0.3 2.3 1.8-1.1-0.1-1.7-0.9-2.3-1.8z m28.3 18.8c0.8 0.2 1.7 0.3 1.8 1.4-1.1 0.3-1.8-0.1-1.8-1.4z m-20.1-12.4c1.1 0.1 2.2 0.2 2.2 1.7-1.2 0-1.7-0.8-2.2-1.7z m249.5-25.1c0.1-1.1 0.6-1.6 1.7-1.8-0.3 0.9-0.9 1.4-1.7 1.8z m-1.8 1.6c0.1-1 0.7-1.6 1.8-1.6-0.1 1.2-1.2 1.2-1.8 1.6z m-272.2 1c1 0.1 1.5 0.8 1.6 1.8-1 0-1.6-0.6-1.6-1.8z m14.4 14.4c0.8 0.2 1.4 0.6 1.6 1.5-0.9-0.2-1.4-0.7-1.6-1.5z" fill="#FDFEFD" p-id="14560"></path><path d="M762.7 667.4c0.8-0.4 1.4-0.9 1.7-1.8l0.1-0.1c3.1-2.9 6.7-5.5 8.2-9.7 0.2-0.4 0.4-0.9 0.7-1.3 3.6-2.7 6.1-6.2 7.7-10.5 0.3-0.1 0.3-0.4 0.2-0.6 1.2-0.1 1.5-0.9 1.4-1.9 0.2-0.6 0.4-1.1 0.6-1.7 6.1-7 9.7-15.4 12.3-24.3 0.1-0.4 0.1-0.8 0.2-1.2 2.4-3.4 3.4-7.2 3.5-11.4 0.1-0.5 0.1-1.1 0.2-1.6 1.9-3.1 2.7-6.4 2-10 0.6-0.9 0.5-1.8 0.3-2.8 1.1-6.8 1.9-13.6 0-20.4 0.3-1.2 0.3-2.5-0.2-3.7 0.3-3.9 0.3-7.7-2.1-11.1-0.1-0.5-0.1-1-0.2-1.5 0.2-4.5-1.4-8.4-3.6-12.3-0.1-0.7-0.2-1.4-0.3-2 0.6-2.3-1.1-4-1.8-5.8-2.7-6.9-5.3-14.1-10.5-19.8l0.1-0.2-0.2-0.1c0.2-1.3-0.5-2-1.6-2.4-2.5-6.2-6.7-11.4-11.1-16.2-9.3-10.6-19.3-20.6-30.9-28.7-8.8-6.1-17.8-11.8-27.4-16.5-10.6-5.1-21.6-9-32.9-12.4-14.6-4.2-29.2-6.5-44.2-7.2-21.4-1-42.3 1.7-63 7.6-12.8 3.6-25 8.2-36.7 14.4-16.7 8.8-32 19.8-44.7 33.8-15.2 16.7-26.9 35.3-32.9 57.4-3.3 12.3-5.6 24.5-5.7 37.3 0 10 1.5 19.8 3.7 29.5 2.7 11.7 6.6 22.8 12.6 33.3 2.4 7 7 12.8 11.5 18.5 2.7 3.5 4.5 7.9 8.9 9.9l0.1 0.1c0 1.1 0.5 1.7 1.6 1.8 3 5.2 7.4 9.1 12.6 12.3l0.2 0.2c0.2 0.8 0.7 1.3 1.6 1.5l0.1 0.3h0.3c0.6 0.8 1.1 1.7 2.3 1.8h0.1c1.2 2.1 3.1 3.4 5.3 4.2l0.1 0.2h0.3c0.5 0.9 1 1.8 2.2 1.7 0.3 0.1 0.6 0.1 0.9 0.2 4.2 4.6 9.6 7.4 15.3 10 0.6 0.2 1.2 0.4 1.7 0.6 0 1.3 0.7 1.6 1.8 1.4 0.6 0.2 1.3 0.3 1.9 0.5 0.4 1.2 1.3 1.8 2.6 1.6 0.3 0.1 0.7 0.1 1 0.2 3.5 3.3 8 4.5 12.5 5.9 0.7 0.1 1.4 0.2 2.2 0.3 7.6 4.5 16 6.6 24.6 7.9 0.7 0.1 1.3 0.1 2 0.2 2 2.1 4.4 2.4 7 1.8 1.2 0.7 2.5 0.8 3.9 0.4 2.8 2.7 6.2 1.8 9.5 1.9 1.2 0.1 2.5 0.1 3.7 0.2 12.2 2.4 24.3 2.7 36.5 0 0.9-0.1 1.9-0.1 2.8-0.2 2.7 0 5.6 0.8 7.7-1.8 1 0.3 2 0.3 3-0.3 2.7 0.7 5 0.2 7-1.8 0.7-0.1 1.3-0.1 2-0.2 5.9-0.8 11.9-1.3 17.3-4.2 0.5 0 1-0.1 1.5-0.1 4.9-0.5 9.1 0.9 13.4 3.5 4 2.5 8 5.3 12.7 6.8l1.2 0.3c4.1 3.6 8.7 6.4 14.1 7.9l0.2 0.1c5.6 4.6 12.4 7.5 19.9 12.2-2-5.8-1.8-10.9-4.8-15.1-0.1-0.5-0.2-0.9-0.2-1.4 0.9-2.2-0.4-3.7-1.7-5.2-0.1-0.7-0.1-1.3-0.2-2 0.5-2 0-3.6-1.6-4.9-0.1-0.7-0.1-1.5-0.2-2.2-0.8-4.7-1.3-9.5-4.1-13.7-0.1-0.5-0.2-1.1-0.2-1.6 0.9-2-0.2-3.3-1.6-4.4V697c1.3-1.6 3.6-2.2 4.3-4.4l0.1-0.1c4.8-2.3 8.9-5.5 12.2-9.8l0.3 0.1 0.1-0.2c5.2-3.6 9.9-7.7 13.5-13.2v-0.1c0.3-0.7 1.4-0.7 1.5-1.9z" fill="#FFFFFF" p-id="14561"></path><path d="M439.1 580.4c0.1-8.6 0.2-17.2 1.9-25.8 2.7-13.3 6-26.1 11.8-38.4 6.2-13.4 14-25.8 23.4-37.2 10-12.2 21.7-22.4 34.8-31.3 16.7-11.3 34.5-19.9 54.2-24.6 10.7-2.5 21.2-5.3 32.3-5.8 10.9-0.5 21.7-0.7 32.6 0.4 3.2 0.3 3.5-0.8 3-3.4-1.7-9.6-5.5-18.6-9.3-27.4-5.2-11.9-12.2-22.6-20.1-32.9-7.7-10-16.6-19.1-26.1-27.2-11.1-9.3-23.1-17.6-36.1-24.2-9.3-4.8-18.7-9.8-28.7-13.1-10.2-3.3-20.4-6.8-31-8.8-11.3-2.1-22.4-4.8-33.8-5.4-28.7-1.6-57.4-0.4-85.3 7.6-9.2 2.6-18.5 5.3-27.2 9-16.5 7-32.4 15.3-46.6 26.3-12.3 9.4-23.7 19.7-33.4 31.8-7.9 10-14.7 20.8-20.3 32.4-8.1 16.7-13.3 34.2-14.8 52.5-2.1 25.2 1.1 49.7 11.8 73 7 15.5 16.1 29.6 27.4 42.3 12.2 13.5 25.9 25.3 40.5 36 1.6 1.1 2 2 1.6 3.8-1.1 4.3-2.8 8.3-4.3 12.5-4.7 13.8-9.3 27.6-14.1 41.5-0.4 1.2-1.1 2.7 0 3.7s2.6 0.3 3.7-0.3c20.5-10.3 40.9-20.7 61.4-31 2.7-1.3 5.2-4 8.5-2.7 3.1 1.2 6.3 1.5 9.4 2.6 9.8 3.4 20.1 5.3 30.2 6.8 13.3 1.9 26.7 2.7 40.2 2.1 7.6-0.4 8.7-1.3 6.7-8.5-3.4-12-4.6-24-4.3-36.3z" fill="#FFFFFF" p-id="14562"></path><path d="M384.8 388.6c1.5 15.2-17.3 28-32.2 23.8-7.5-2.1-14.4-4.6-19.6-10.9-7.7-9.1-7.6-20.3 0.2-29.2 8.6-9.8 26.1-13.1 37.5-7.8 9.6 4.5 13.9 12.3 14.1 24.1z m144.1-1.1c1.5 18-17.7 28.8-32.2 24.9-7.3-2-13.6-4.9-18.6-10.9-7.6-8.9-6-23 2.3-31.4 10-10 34.7-11.5 43.4 0.3 3.1 4.4 5.1 9.2 5.1 17.1z m42.8 124c10.2 0.9 19.2 4 23.4 14.8 2.4 6.2 1.2 12-3.1 16.5-8.6 9.1-27.1 13.7-37.6 1.2-6.2-7.4-6.4-14.9-1.3-22.6 4.4-6.7 10.3-10.6 18.6-9.9z m112.9 0c11.6 0.2 21.2 4.8 25 16.8 1.9 6.2-0.8 11.3-4.8 15.3-7.9 7.9-21.3 11.4-32 4.3-5.6-3.7-9.6-9.6-8.9-16.8 0.8-7.5 4.5-13.9 11.7-17.6 2.9-1.6 6.2-2.5 9-2z" fill="#42CA34" p-id="14563"></path></svg>